<svg width="25" height="31" viewBox="0 0 25 31" fill="none" xmlns="http://www.w3.org/2000/svg">
<rect width="25" height="31" fill="#E5E5E5"/>
<g clip-path="url(#clip0_0_1)">
<rect width="1440" height="1080" transform="translate(-1064 -917)" fill="white"/>
<rect x="-702" y="-917" width="1078" height="1080" fill="#EFF5FF"/>
<g opacity="0.08">
<mask id="mask0_0_1" style="mask-type:alpha" maskUnits="userSpaceOnUse" x="-702" y="-917" width="1078" height="1080">
<rect x="-702" y="-917" width="1078" height="1080" fill="#EFF5FF"/>
</mask>
<g mask="url(#mask0_0_1)">
<path d="M-906.217 -253.37L-724.701 -434.886C-683.97 -475.617 -618.005 -475.617 -577.495 -434.886C-536.765 -394.155 -536.765 -328.19 -577.495 -287.681L-660.063 -205.113C-677.994 -187.182 -677.994 -158.405 -660.063 -140.475C-642.133 -122.545 -613.356 -122.545 -595.426 -140.475L-577.495 -158.405C-540.749 -195.151 -481.203 -195.151 -444.457 -158.405C-407.711 -121.659 -407.711 -62.1132 -444.457 -25.3672L-518.171 48.3462C-526.14 56.3152 -526.14 69.1542 -518.171 77.1232C-510.202 85.0922 -497.363 85.0922 -489.394 77.1232L-309.648 -102.622C-277.993 -134.277 -226.416 -134.277 -194.761 -102.622C-163.107 -70.9676 -163.107 -19.3904 -194.761 12.2643L-243.24 60.9639C-250.102 67.826 -250.102 79.1155 -243.24 86.1991C-236.377 93.0613 -225.088 93.0613 -218.004 86.1991L-214.02 82.2145C-129.017 -2.78833 9.11267 -2.78833 94.1155 82.2145L177.126 165.225H-1168.53C-1168.53 165.004 -890.058 -237.21 -906.217 -253.37Z" fill="#B9E6FF"/>
</g>
</g>
<mask id="path-4-inside-1_0_1" fill="white">
<path fill-rule="evenodd" clip-rule="evenodd" d="M352 -16H327.934H327.869H-4.00003C-10.6274 -16 -16 -10.6274 -16 -4V35C-16 41.6274 -10.6274 47 -4 47H327.934C334.562 47 339.934 41.6274 339.934 35V-4C339.934 -4.2342 339.928 -4.46683 339.914 -4.69772L352 -16Z"/>
</mask>
<path fill-rule="evenodd" clip-rule="evenodd" d="M352 -16H327.934H327.869H-4.00003C-10.6274 -16 -16 -10.6274 -16 -4V35C-16 41.6274 -10.6274 47 -4 47H327.934C334.562 47 339.934 41.6274 339.934 35V-4C339.934 -4.2342 339.928 -4.46683 339.914 -4.69772L352 -16Z" fill="#E9F2FF"/>
<path d="M352 -16V-17H354.533L352.683 -15.2696L352 -16ZM339.914 -4.69772L338.916 -4.64048L338.889 -5.10814L339.231 -5.4281L339.914 -4.69772ZM327.934 -17H352V-15H327.934V-17ZM327.934 -15H327.869V-17H327.934V-15ZM327.869 -15H-4.00003V-17H327.869V-15ZM-4.00003 -15C-10.0752 -15 -15 -10.0751 -15 -4H-17C-17 -11.1797 -11.1797 -17 -4.00003 -17V-15ZM-15 -4V35H-17V-4H-15ZM-15 35C-15 41.0751 -10.0752 46 -4 46V48C-11.1797 48 -17 42.1797 -17 35H-15ZM-4 46H327.934V48H-4V46ZM327.934 46C334.01 46 338.934 41.0751 338.934 35H340.934C340.934 42.1797 335.114 48 327.934 48V46ZM338.934 35V-4H340.934V35H338.934ZM338.934 -4C338.934 -4.2151 338.928 -4.42865 338.916 -4.64048L340.913 -4.75496C340.927 -4.50502 340.934 -4.2533 340.934 -4H338.934ZM352.683 -15.2696L340.598 -3.96734L339.231 -5.4281L351.317 -16.7304L352.683 -15.2696Z" fill="#C5DAFF" mask="url(#path-4-inside-1_0_1)"/>
<path d="M17.7144 7.75002C17.1029 7.75002 16.6072 7.25433 16.6072 6.64285V0H3.32149C1.48711 0 6.10352e-05 1.48705 6.10352e-05 3.32143V27.6786C6.10352e-05 29.5129 1.48711 31 3.32149 31H21.0358C22.8702 31 24.3572 29.5129 24.3572 27.6786V7.75002H17.7144V7.75002Z" fill="#5C98F1"/>
<path d="M24.1429 0.648804V5.53571H29.0299L24.1429 0.648804Z" fill="#5C98F1"/>
</g>
<defs>
<clipPath id="clip0_0_1">
<rect width="1440" height="1080" fill="white" transform="translate(-1064 -917)"/>
</clipPath>
</defs>
</svg>
